<mxfile host="app.diagrams.net" modified="2023-08-31T12:29:50.080Z" agent="Mozilla/5.0 (Windows NT 10.0; Win64; x64; rv:109.0) Gecko/20100101 Firefox/117.0" version="21.7.0" etag="1aLsZb0_mtm9luLjxeN0" type="github">
  <diagram name="Страница — 1" id="XvLQQYulOv0tRLKGQwSg">
    <mxGraphModel>
      <root>
        <mxCell id="0" />
        <mxCell id="1" parent="0" />
      </root>
    </mxGraphModel>
  </diagram>
</mxfile>
